<svg xmlns="http://www.w3.org/2000/svg" xmlns:xlink="http://www.w3.org/1999/xlink" width="39" height="35" viewBox="0 0 39 35"><defs><path id="gb0va" d="M90 353v2a3 3 0 0 1-2.32 2.91l-3.8 12.94A3 3 0 0 1 81 373H63a3 3 0 0 1-2.88-2.15l-3.8-12.94A3 3 0 0 1 54 355v-2a3 3 0 0 1 3-3h5.1c.03-.1.07-.2.13-.3l5-8a1.5 1.5 0 0 1 2.54 1.6l-4.19 6.7h12.84l-4.2-6.7a1.5 1.5 0 0 1 2.55-1.59l5 8c.06.09.1.19.13.29H87a3 3 0 0 1 3 3zm-33 2h30v-2H57zm27.53 3H59.47L63 370h18z"/></defs><g><g transform="translate(-53 -339)"><use fill="#d8d8d8" xlink:href="#gb0va"/></g></g></svg>